<?xml version="1.0" encoding="UTF-8"?>
<!-- Generator: visioncortex VTracer 0.6.2 -->
<svg version="1.1" xmlns="http://www.w3.org/2000/svg" width="1280" height="1280">
<path d="M0 0 C422.4 0 844.8 0 1280 0 C1280 422.4 1280 844.8 1280 1280 C857.6 1280 435.2 1280 0 1280 C0 857.6 0 435.2 0 0 Z " fill="#FCFCFC" transform="translate(0,0)"/>
<path d="M0 0 C1.8024115 0.00323273 1.8024115 0.00323273 3.64123535 0.00653076 C42.51655056 0.11795641 79.75906906 4.99741183 117.5625 13.9375 C118.35692505 14.12532043 119.1513501 14.31314087 119.96984863 14.50665283 C129.49101815 16.7747433 138.86781479 19.30548555 148.1875 22.3125 C148.98244873 22.56193359 149.77739746 22.81136719 150.59643555 23.06835938 C161.20166441 26.4080912 171.48520209 30.96670463 181.69921875 35.33203125 C184.06315835 36.32827737 184.06315835 36.32827737 186.12109375 36.78515625 C195.86872379 39.27273669 205.43507553 44.82735612 214.32519531 49.36962891 C216.30066913 50.3697967 218.28554449 51.34898183 220.2734375 52.32421875 C226.75078389 55.50781893 233.13127912 58.71289596 239.26171875 62.53515625 C241.82467113 64.09208994 244.40944896 65.58281117 247.01953125 67.05859375 C247.88795654 67.55190186 248.75638184 68.04520996 249.65112305 68.5534668 C251.41114202 69.55141903 253.17429231 70.54387085 254.94067383 71.53051758 C255.74657959 71.98966553 256.55248535 72.44881348 257.3828125 72.921875 C258.11516113 73.33405273 258.84750977 73.74623047 259.60205078 74.17089844 C260.12524902 74.54762695 260.64844727 74.92435547 261.1875 75.3125 C261.1875 75.9725 261.1875 76.6325 261.1875 77.3125 C261.90421875 77.57675781 262.6209375 77.84101563 263.359375 78.11328125 C270.82198679 81.27767603 277.45966565 86.3456475 283.76171875 91.3828125 C286.06043433 93.21142039 288.39412904 94.98751501 290.73730469 96.75854492 C296.88531096 101.41904163 302.79329264 106.30533539 308.60620117 111.37768555 C311.06695407 113.52142864 313.46738735 115.49909157 316.1875 117.3125 C316.1875 118.3025 316.1875 119.2925 316.1875 120.3125 C316.8475 120.498125 317.5075 120.68375 318.1875 120.875 C325.63226043 124.44228104 331.30089947 131.3455453 336.98828125 137.17578125 C339.19328065 139.4477713 339.19328065 139.4477713 342.1875 141.3125 C342.1875 142.3025 342.1875 143.2925 342.1875 144.3125 C343.05375 144.6528125 343.05375 144.6528125 343.9375 145 C346.78341381 146.66011639 348.18591921 148.70437957 350.1875 151.3125 C351.8329378 153.00012851 353.50038577 154.6665349 355.1875 156.3125 C364.31747142 165.22546022 372.35817486 175.20584439 379.86523438 185.50439453 C381.43746067 187.65430368 383.02318312 189.79396825 384.609375 191.93359375 C401.00706162 214.07090633 415.57077829 237.02487003 428.24902344 261.50292969 C428.87042117 262.70110867 429.4960217 263.89711813 430.12597656 265.09082031 C468.73709374 338.3601068 485.17176573 424.75926046 480.375 507.125 C480.3097261 508.26461182 480.3097261 508.26461182 480.24313354 509.42724609 C479.44519633 523.12848189 478.18009327 536.7285737 476.1875 550.3125 C476.04314514 551.31478134 476.04314514 551.31478134 475.89587402 552.33731079 C474.20225619 563.99261855 472.0073456 575.47437841 469.390625 586.95678711 C468.81078066 589.50756349 468.2447159 592.06114009 467.6796875 594.61523438 C464.79077492 607.50652855 461.44277147 620.18289063 456.3359375 632.3984375 C454.73902283 636.4504727 453.35259493 640.56908038 451.9375 644.6875 C446.61733839 660.04309368 440.68191913 674.88491779 433.1875 689.3125 C432.55136851 690.5947129 431.91867274 691.87863489 431.2890625 693.1640625 C427.48384045 700.9211524 423.48460117 708.5175049 419.15673828 715.99755859 C417.65944964 718.60115849 416.25842777 721.12945181 415.171875 723.93359375 C413.94782682 726.89171019 412.24654121 729.14040421 410.3125 731.6875 C407.26864239 735.77733777 404.58464387 739.81785524 402.1875 744.3125 C401.5275 744.3125 400.8675 744.3125 400.1875 744.3125 C400.001875 745.09625 399.81625 745.88 399.625 746.6875 C396.12418658 755.51563818 389.21900833 762.96817879 383.421875 770.4296875 C382.08305916 772.15704081 380.77086396 773.90630371 379.515625 775.6953125 C379.07734375 776.22898437 378.6390625 776.76265625 378.1875 777.3125 C377.5275 777.3125 376.8675 777.3125 376.1875 777.3125 C376.07664062 777.90546875 375.96578125 778.4984375 375.8515625 779.109375 C375.11866553 781.54086847 374.25786228 782.69488166 372.5625 784.5625 C372.02238281 785.16707031 371.48226562 785.77164063 370.92578125 786.39453125 C370.06533203 787.34392578 370.06533203 787.34392578 369.1875 788.3125 C368.03963324 789.623222 366.89383181 790.93575532 365.75 792.25 C365.16992188 792.90871094 364.58984375 793.56742188 363.9921875 794.24609375 C362.7348595 795.68576152 361.49102243 797.13727607 360.2578125 798.59765625 C359.63648438 799.32855469 359.01515625 800.05945313 358.375 800.8125 C357.81167969 801.4828125 357.24835937 802.153125 356.66796875 802.84375 C355.1875 804.3125 355.1875 804.3125 353.1875 804.3125 C353.11917969 804.88355469 353.05085937 805.45460938 352.98046875 806.04296875 C351.88040329 809.19143196 350.0379613 810.4891671 347.5 812.625 C343.80378667 815.82627878 340.57730854 819.04386786 337.48828125 822.8203125 C335.62316195 824.95987879 333.43787869 826.59510574 331.1875 828.3125 C330.589375 828.910625 329.99125 829.50875 329.375 830.125 C327.364394 832.135606 325.3081601 834.04419348 323.1875 835.9375 C322.5275 836.52789063 321.8675 837.11828125 321.1875 837.7265625 C319.1875 839.3125 319.1875 839.3125 317 840.3359375 C314.83202572 841.23696029 314.83202572 841.23696029 314.1875 844.3125 C312.42926601 845.89575725 310.60717853 847.40906064 308.75 848.875 C304.84125212 851.95104744 304.84125212 851.95104744 301.1875 855.3125 C300.1975 855.3125 299.2075 855.3125 298.1875 855.3125 C297.960625 855.89386719 297.73375 856.47523438 297.5 857.07421875 C295.82270015 859.93461404 293.90302051 861.23107874 291.1875 863.125 C290.19878906 863.81980469 289.21007812 864.51460937 288.19140625 865.23046875 C287.20011719 865.91753906 286.20882812 866.60460938 285.1875 867.3125 C284.33027344 867.92738281 283.47304688 868.54226563 282.58984375 869.17578125 C278.52879019 872.07837262 274.43736761 874.79695223 270.125 877.3125 C265.88559428 879.79766887 262.11890755 882.63664332 258.29296875 885.7109375 C256.35661544 887.18385931 254.44155252 888.39308331 252.3125 889.5625 C249.28592998 891.05825839 249.28592998 891.05825839 247.6875 892.875 C245.77698819 894.70590715 243.63414544 895.41090997 241.22021484 896.41821289 C237.62863976 897.99831613 234.20194476 899.88887047 230.75 901.75 C222.82974652 906.00041657 214.84995551 910.04709739 206.6875 913.8125 C202.80421103 915.61126114 198.92855627 917.41160918 195.125 919.375 C184.59577447 924.70133423 173.48735211 928.83325676 162.375 932.75 C161.70531189 932.98650269 161.03562378 933.22300537 160.34564209 933.4666748 C129.18044549 944.42851206 96.86851287 951.5824365 64.1875 956.3125 C63.45805176 956.41900879 62.72860352 956.52551758 61.97705078 956.63525391 C39.49181465 959.79582927 15.8755103 961.13190571 -6.8125 960.3125 C-8.0617627 960.27141113 -9.31102539 960.23032227 -10.59814453 960.18798828 C-68.99172277 958.16503444 -126.88054804 947.30810866 -180.8125 924.3125 C-181.72032227 923.93005127 -182.62814453 923.54760254 -183.56347656 923.15356445 C-186.1909159 922.04627268 -188.81456267 920.93040853 -191.4375 919.8125 C-192.30117188 919.44769531 -193.16484375 919.08289062 -194.0546875 918.70703125 C-200.0955059 916.12973597 -205.96224337 913.29427106 -211.8125 910.3125 C-213.16494076 909.64237312 -214.51778119 908.97305204 -215.87109375 908.3046875 C-238.25399728 897.09924292 -260.64363897 884.32870379 -280.27929688 868.75 C-283.01318605 866.60784742 -285.61952084 864.70411319 -288.8125 863.3125 C-288.8125 862.6525 -288.8125 861.9925 -288.8125 861.3125 C-289.63427734 860.93931641 -289.63427734 860.93931641 -290.47265625 860.55859375 C-298.19125596 856.44802062 -305.08191187 850.18687069 -311.75 844.5625 C-312.54651978 843.89166382 -312.54651978 843.89166382 -313.35913086 843.20727539 C-315.77014861 841.15022449 -318.07623084 839.04753293 -320.3125 836.80078125 C-323.50495091 833.62329495 -326.95078589 830.81867892 -330.43945312 827.97460938 C-334.68851027 824.48334586 -338.44515384 820.81181881 -342 816.625 C-346.83598129 811.05062157 -352.09603322 805.89961122 -357.4375 800.8125 C-360.86391098 797.2057516 -363.81125539 793.27466942 -366.8125 789.3125 C-367.69421875 788.17941406 -367.69421875 788.17941406 -368.59375 787.0234375 C-369.1403125 786.31445312 -369.686875 785.60546875 -370.25 784.875 C-370.99056641 783.91787109 -370.99056641 783.91787109 -371.74609375 782.94140625 C-372.8125 781.3125 -372.8125 781.3125 -372.8125 779.3125 C-373.41707031 779.22613281 -374.02164063 779.13976562 -374.64453125 779.05078125 C-377.45281334 778.09444735 -377.98727731 777.02120448 -379.5 774.5 C-381.84460546 770.77207732 -384.32366948 767.24834633 -387 763.75 C-394.27818678 754.12361444 -401.27993655 744.23208304 -407.35546875 733.796875 C-409.12009547 730.78802086 -410.96755903 727.83524428 -412.8125 724.875 C-418.71281705 715.2953978 -423.83248922 705.39431531 -428.8125 695.3125 C-429.66565086 693.60365914 -430.51976446 691.89529848 -431.375 690.1875 C-431.77847656 689.37539063 -432.18195313 688.56328125 -432.59765625 687.7265625 C-433.40133529 686.12954114 -434.22148188 684.54069094 -435.05859375 682.9609375 C-438.134903 677.07665751 -440.39696322 671.08428545 -442.56640625 664.8125 C-443.69790267 661.6343784 -444.93012438 658.5411053 -446.25 655.4375 C-451.66533103 642.62065071 -456.05389092 629.69914032 -459.8125 616.3125 C-460.1528125 615.12140625 -460.493125 613.9303125 -460.84375 612.703125 C-461.32328125 611.02476562 -461.32328125 611.02476562 -461.8125 609.3125 C-462.09609375 608.32894531 -462.3796875 607.34539063 -462.671875 606.33203125 C-466.33634224 593.13673474 -469.11070836 579.73296746 -471.8125 566.3125 C-472.01407715 565.31605469 -472.2156543 564.31960938 -472.42333984 563.29296875 C-482.40288701 512.7042739 -481.70324819 458.11181192 -473.8125 407.3125 C-473.65442871 406.27963867 -473.49635742 405.24677734 -473.33349609 404.18261719 C-471.01502632 389.3737527 -467.87987897 374.84600133 -464.25 360.3125 C-464.0604071 359.55023102 -463.87081421 358.78796204 -463.67547607 358.00259399 C-461.41465577 348.96456708 -458.88608224 340.1140848 -455.8125 331.3125 C-455.29988935 329.75983721 -454.78932839 328.20649554 -454.28125 326.65234375 C-446.58683513 303.60529598 -437.13735309 280.80950767 -425.8125 259.3125 C-425.03999751 257.82440925 -424.26787783 256.33611973 -423.49609375 254.84765625 C-422.70672219 253.33541874 -421.91637882 251.82368805 -421.125 250.3125 C-420.76841309 249.62986084 -420.41182617 248.94722168 -420.04443359 248.24389648 C-417.83598238 244.07458971 -415.45455228 240.0600304 -412.92651367 236.07666016 C-411.66652097 234.08132655 -410.48835671 232.04583178 -409.3125 230 C-404.72934679 222.31367014 -399.51769267 215.0199901 -394.41796875 207.67138672 C-393.31335185 206.04839273 -392.23385485 204.40810801 -391.17578125 202.75439453 C-390.65371094 201.9395459 -390.13164062 201.12469727 -389.59375 200.28515625 C-389.13033203 199.546604 -388.66691406 198.80805176 -388.18945312 198.04711914 C-386.8125 196.3125 -386.8125 196.3125 -383.8125 195.3125 C-383.4675855 193.98211551 -383.13733418 192.64792939 -382.8125 191.3125 C-380.3235822 187.16430367 -377.41488481 183.59388841 -374.1796875 180.0234375 C-372.73410892 178.34491995 -372.73410892 178.34491995 -371.82421875 176.26171875 C-370.42537509 173.5666493 -368.20040181 172.11748265 -365.8828125 170.2265625 C-362.49148748 167.09118654 -359.75788993 163.43775208 -356.92578125 159.80078125 C-354.8125 157.3125 -354.8125 157.3125 -352.60546875 155.66796875 C-350.51053788 154.35005071 -350.51053788 154.35005071 -349.8125 151.3125 C-348.760625 150.4771875 -348.760625 150.4771875 -347.6875 149.625 C-344.52860188 147.08414716 -342.0847553 144.2851714 -339.453125 141.21875 C-337.66125627 139.13676919 -335.86725147 137.13894575 -333.8125 135.3125 C-333.1525 135.3125 -332.4925 135.3125 -331.8125 135.3125 C-331.8125 134.6525 -331.8125 133.9925 -331.8125 133.3125 C-330.13924546 132.12191504 -328.46157932 130.93509161 -326.734375 129.82421875 C-324.66538207 128.31646762 -324.66538207 128.31646762 -322.91015625 125.91796875 C-320.66717073 123.1319886 -318.31156213 121.14061941 -315.5 118.9375 C-312.20165857 116.30319552 -309.08942939 113.69003549 -306.1875 110.625 C-303.07389745 107.3835442 -299.63495305 105.04115959 -295.828125 102.671875 C-293.88857927 101.36380928 -292.43407239 99.98652217 -290.8125 98.3125 C-285.43490225 93.91971533 -279.61287389 90.14067963 -273.82421875 86.3203125 C-271.10060362 84.50456908 -268.42004581 82.64322803 -265.75 80.75 C-260.54805387 77.08875766 -255.20542627 73.68397179 -249.8125 70.3125 C-248.6521233 69.57326259 -247.49197588 68.83366519 -246.33203125 68.09375 C-245.15913135 67.35372715 -243.98595881 66.61413625 -242.8125 65.875 C-241.74 65.19566406 -240.6675 64.51632813 -239.5625 63.81640625 C-236.8125 62.3125 -236.8125 62.3125 -233.8125 62.3125 C-233.8125 61.6525 -233.8125 60.9925 -233.8125 60.3125 C-232.843125 59.8278125 -231.87375 59.343125 -230.875 58.84375 C-230.23506104 58.52374023 -229.59512207 58.20373047 -228.93579102 57.87402344 C-227.50411743 57.15826895 -226.07231111 56.44277993 -224.64038086 55.72753906 C-220.92512155 53.87132791 -217.21193225 52.01124873 -213.50390625 50.140625 C-204.01304538 45.35793407 -194.63111505 40.92853463 -184.609375 37.37109375 C-181.89569492 36.34398858 -179.30835614 35.18042117 -176.6875 33.9375 C-150.22232232 21.60235947 -120.23242285 14.53495772 -91.7097168 8.88720703 C-89.89933497 8.52809025 -88.09056071 8.16065222 -86.28442383 7.78076172 C-79.27325973 6.3158696 -72.21861568 5.2914572 -65.125 4.3125 C-63.97966797 4.1475 -62.83433594 3.9825 -61.65429688 3.8125 C-41.11585699 0.96272189 -20.72596903 -0.0672851 0 0 Z " fill="#E64158" transform="translate(638.8125,159.6875)"/>
<path d="M0 0 C2.32409394 1.68418294 4.40631328 3.46394885 6.5 5.42578125 C7.51320313 6.35970703 7.51320313 6.35970703 8.546875 7.3125 C16.03901618 14.93531806 20.80940011 25.09609335 24.11010742 35.1796875 C24.37264816 35.97834229 24.6351889 36.77699707 24.90568542 37.59985352 C25.10180923 38.20240967 25.29793304 38.80496582 25.5 39.42578125 C26.06439285 39.42942688 26.62878571 39.43307251 27.21028137 39.43682861 C33.13269912 39.47893314 39.05436192 39.54847027 44.97631836 39.63330078 C47.18066829 39.66136934 49.38511623 39.68265341 51.58959961 39.69677734 C54.77508211 39.71840316 57.95940354 39.76515329 61.14453125 39.81640625 C62.60147148 39.81824921 62.60147148 39.81824921 64.08784485 39.82012939 C72.26474334 39.99163199 79.63960856 41.85218696 86.5 46.42578125 C86.5 47.08578125 86.5 47.74578125 86.5 48.42578125 C87.16 48.42578125 87.82 48.42578125 88.5 48.42578125 C90.0078125 50.32421875 90.0078125 50.32421875 91.625 52.80078125 C92.16382813 53.61289062 92.70265625 54.425 93.2578125 55.26171875 C94.5 57.42578125 94.5 57.42578125 94.5 59.42578125 C98.07175856 60.61636744 101.32389279 60.57813751 105.04150391 60.58349609 C106.19090454 60.59111717 106.19090454 60.59111717 107.36352539 60.59889221 C109.02826419 60.60959254 110.69301734 60.61821405 112.35777664 60.62501144 C114.99855248 60.63681706 117.639166 60.65627669 120.27987671 60.6781311 C127.7885797 60.73967332 135.29726765 60.79367572 142.80615234 60.82714844 C147.4003756 60.84817859 151.99430518 60.88355322 156.58835983 60.92790604 C158.33368836 60.94200567 160.07906888 60.95077475 161.82445145 60.95396042 C181.82071139 60.99430293 181.82071139 60.99430293 189.3125 66.48828125 C197.00192938 76.81408642 196.07022913 88.0531207 196.02139282 100.35366821 C196.02743704 102.5056236 196.0352166 104.6575747 196.04457796 106.80951822 C196.06513958 112.71177406 196.06077403 118.61378696 196.05221677 124.51606274 C196.04728274 130.88558764 196.06530978 137.25505402 196.08029175 143.6245575 C196.10578912 156.09745448 196.10938454 168.57026277 196.10469122 181.0431812 C196.10102392 191.17875397 196.10454812 201.31430146 196.11314011 211.44987106 C196.11434491 212.90673826 196.11554731 214.36360545 196.11674731 215.82047265 C196.11856183 218.01587736 196.12037917 220.21128208 196.12221201 222.40668677 C196.13906568 242.8119563 196.14774593 263.21721632 196.13939857 283.62249184 C196.13908582 284.39140013 196.13877307 285.16030841 196.13845084 285.95251695 C196.1368393 289.84954719 196.13514776 293.74657739 196.13342424 297.64360757 C196.13291097 298.80453045 196.13291097 298.80453045 196.13238734 299.98890633 C196.13169403 301.55401582 196.13099697 303.11912531 196.13029617 304.6842348 C196.11957696 329.04833615 196.13545833 353.41229281 196.17236328 377.77636719 C196.21378671 405.15546597 196.23525236 432.53447512 196.22721231 459.913607 C196.22642162 462.83217898 196.22569853 465.75075096 196.22501755 468.66932297 C196.22483608 469.38793998 196.22465462 470.10655699 196.22446766 470.84695028 C196.22213522 481.69751043 196.2354356 492.54798007 196.25664139 503.39851761 C196.28072654 515.73487635 196.2833275 528.07099751 196.25906105 540.40736343 C196.24725423 546.703091 196.24516492 552.99842837 196.26906586 559.29413033 C196.29068412 565.05538411 196.28469714 570.81591959 196.25654249 576.57713906 C196.25122108 578.66310557 196.25606761 580.74912747 196.27201422 582.83503981 C196.29217495 585.6684574 196.27543519 588.49936534 196.24946022 591.33268166 C196.27138826 592.55066574 196.27138826 592.55066574 196.29375929 593.79325557 C196.15836637 600.90625284 192.85951039 605.01816047 187.99120883 609.9561793 C182.65523094 614.76755524 177.37895057 615.67536085 170.37814426 615.68025684 C169.33255561 615.68506656 169.33255561 615.68506656 168.26584396 615.68997344 C165.93060895 615.69827335 163.59563043 615.69234926 161.26039124 615.68647766 C159.56903189 615.68949835 157.8776739 615.69338741 156.18631834 615.69807023 C151.53871996 615.70836959 146.89119856 615.70616348 142.24359381 615.70188963 C137.23124011 615.69942595 132.21890511 615.7084321 127.20655823 615.71592712 C117.38712991 615.72868585 107.56772892 615.73046637 97.74829371 615.72812686 C89.7684205 615.72634494 81.78855561 615.72809063 73.8086834 615.7323513 C72.10608723 615.73324409 72.10608723 615.73324409 70.36909519 615.73415491 C68.06333451 615.73536664 65.75757383 615.73658077 63.45181315 615.73779728 C41.82161055 615.74867723 20.19142353 615.74650811 -1.43877996 615.74041244 C-21.2341932 615.73524223 -41.02955725 615.74650067 -60.82496076 615.76551066 C-81.14394215 615.78487409 -101.46290025 615.79314772 -121.78189093 615.7893874 C-133.19226135 615.78747317 -144.6025899 615.78998457 -156.0129528 615.80410194 C-165.72605211 615.81599764 -175.43908374 615.81744097 -185.15218394 615.80531178 C-190.10896406 615.79941051 -195.0656203 615.7983581 -200.02239227 615.81031418 C-204.55921891 615.82113028 -209.09581761 615.81812073 -213.6326334 615.80405249 C-215.27455953 615.80139376 -216.91650329 615.80380883 -218.55841219 615.81178836 C-220.78998456 615.82188151 -223.02076259 615.81348418 -225.25230312 615.80051136 C-227.11166143 615.80059388 -227.11166143 615.80059388 -229.00858253 615.80067807 C-236.54777021 614.99114511 -243.36003191 611.09622426 -248.3125 605.36328125 C-251.82095159 600.65193197 -251.64280534 596.65433938 -251.62863445 591.00759697 C-251.63038749 590.13394261 -251.63214053 589.26028825 -251.63394669 588.36015952 C-251.63863203 585.40617766 -251.63613469 582.45224448 -251.63371277 579.4982605 C-251.63557948 577.36956337 -251.63787961 575.24086658 -251.64057809 573.11217034 C-251.64672003 567.24170636 -251.64655969 561.37125658 -251.64538372 555.50079012 C-251.64518031 549.17750101 -251.65069279 542.85421654 -251.65544128 536.53092957 C-251.66376191 524.13362824 -251.66650971 511.73633264 -251.66705366 499.33902888 C-251.66751284 489.26385147 -251.66956926 479.1886756 -251.67275429 469.11349869 C-251.67365181 466.21550278 -251.67454162 463.31750687 -251.67542917 460.41951096 C-251.67565021 459.69909367 -251.67587126 458.97867638 -251.67609901 458.23642826 C-251.68225565 437.96442174 -251.68619934 417.69241575 -251.68575573 397.42040825 C-251.68574015 396.65569451 -251.68572457 395.89098077 -251.68570852 395.10309389 C-251.68562541 391.22704205 -251.68552637 387.35099021 -251.68542381 383.47493838 C-251.68540387 382.70511637 -251.68538392 381.93529435 -251.68536337 381.1421444 C-251.68532294 379.58537454 -251.68528114 378.02860468 -251.68523798 376.47183482 C-251.68462537 352.25660783 -251.69212823 328.04139485 -251.70581055 303.82617188 C-251.72117023 276.63098123 -251.7297768 249.43579978 -251.72884732 222.24060452 C-251.72877269 219.34072248 -251.72872399 216.44084044 -251.72869301 213.5409584 C-251.72868135 212.82691591 -251.7286697 212.11287342 -251.72865769 211.37719328 C-251.72862691 199.88360335 -251.73501442 188.39002557 -251.74362527 176.89643925 C-251.75210121 165.34394301 -251.7529206 153.79147081 -251.74651595 142.23897199 C-251.74324466 135.97974651 -251.74321597 129.72056509 -251.7518692 123.46134377 C-251.7597084 117.73205615 -251.75832919 112.00284771 -251.74958507 106.27356209 C-251.74804436 104.20015372 -251.74988763 102.12673953 -251.75544515 100.05333804 C-251.76249906 97.2351336 -251.75721631 94.41720737 -251.74888897 91.59901237 C-251.75385715 90.79406645 -251.75882533 89.98912052 -251.76394406 89.15978229 C-251.72507673 82.93770674 -251.65563166 75.90802377 -247.4375 71.05078125 C-246.798125 70.51453125 -246.15875 69.97828125 -245.5 69.42578125 C-245.17 68.43578125 -244.84 67.44578125 -244.5 66.42578125 C-242.79296875 65.29296875 -242.79296875 65.29296875 -240.6875 64.30078125 C-239.65689453 63.80191406 -239.65689453 63.80191406 -238.60546875 63.29296875 C-233.90994035 61.35900343 -229.46097993 61.25849644 -224.42675781 61.22045898 C-223.21156212 61.20560959 -223.21156212 61.20560959 -221.97181702 61.19046021 C-219.29894922 61.1589191 -216.62606366 61.13411702 -213.953125 61.109375 C-212.09795678 61.08879909 -210.24279317 61.06780245 -208.38763428 61.04640198 C-203.50835923 60.99124709 -198.62904234 60.94180879 -193.74969482 60.89355469 C-188.76928998 60.84329158 -183.78894579 60.78763063 -178.80859375 60.73242188 C-169.03911434 60.62492083 -159.26958223 60.52345799 -149.5 60.42578125 C-149.1046254 59.66407623 -148.70925079 58.90237122 -148.30189514 58.11758423 C-147.51062477 56.62392838 -147.51062477 56.62392838 -146.70336914 55.10009766 C-146.18424454 54.11151764 -145.66511993 53.12293762 -145.13026428 52.10440063 C-142.83027803 48.32538895 -140.79285516 46.94011646 -136.9375 44.80078125 C-135.84308594 44.16914063 -134.74867188 43.5375 -133.62109375 42.88671875 C-127.68628393 40.10872266 -121.89887777 40.23852751 -115.45703125 40.14453125 C-114.49222336 40.12612183 -113.52741547 40.1077124 -112.53337097 40.08874512 C-108.41404067 40.01021141 -104.29455476 39.94213482 -100.17504883 39.87353516 C-97.1647919 39.82189962 -94.15467884 39.76463902 -91.14453125 39.70703125 C-90.2080928 39.69345581 -89.27165436 39.67988037 -88.30683899 39.66589355 C-87.44221542 39.64917603 -86.57759186 39.6324585 -85.68676758 39.61523438 C-84.92463455 39.6027063 -84.16250153 39.59017822 -83.37727356 39.57727051 C-81.40928664 39.53618347 -81.40928664 39.53618347 -79.5 38.42578125 C-79.06657715 36.5429458 -79.06657715 36.5429458 -78.8125 34.23828125 C-77.72661208 28.07008181 -74.97143321 22.98967472 -72.05859375 17.52734375 C-70.82307474 15.06869189 -69.98171152 13.10488915 -69.5 10.42578125 C-68.51 10.42578125 -67.52 10.42578125 -66.5 10.42578125 C-65.37879124 8.99878828 -64.25763017 7.5717578 -63.13671875 6.14453125 C-47.74690882 -10.01660567 -18.08823804 -11.38993739 0 0 Z " fill="#E64158" transform="translate(667.5,335.57421875)"/>
<path d="M0 0 C2.32409394 1.68418294 4.40631328 3.46394885 6.5 5.42578125 C7.51320313 6.35970703 7.51320313 6.35970703 8.546875 7.3125 C16.03901618 14.93531806 20.80940011 25.09609335 24.11010742 35.1796875 C24.37264816 35.97834229 24.6351889 36.77699707 24.90568542 37.59985352 C25.10180923 38.20240967 25.29793304 38.80496582 25.5 39.42578125 C26.06439285 39.42942688 26.62878571 39.43307251 27.21028137 39.43682861 C33.13269912 39.47893314 39.05436192 39.54847027 44.97631836 39.63330078 C47.18066829 39.66136934 49.38511623 39.68265341 51.58959961 39.69677734 C54.77508211 39.71840316 57.95940354 39.76515329 61.14453125 39.81640625 C62.60147148 39.81824921 62.60147148 39.81824921 64.08784485 39.82012939 C72.26474334 39.99163199 79.63960856 41.85218696 86.5 46.42578125 C86.5 47.08578125 86.5 47.74578125 86.5 48.42578125 C87.16 48.42578125 87.82 48.42578125 88.5 48.42578125 C90.0078125 50.32421875 90.0078125 50.32421875 91.625 52.80078125 C92.16382813 53.61289062 92.70265625 54.425 93.2578125 55.26171875 C94.5 57.42578125 94.5 57.42578125 94.5 59.42578125 C98.07175856 60.61636744 101.32389279 60.57813751 105.04150391 60.58349609 C106.19090454 60.59111717 106.19090454 60.59111717 107.36352539 60.59889221 C109.02826419 60.60959254 110.69301734 60.61821405 112.35777664 60.62501144 C114.99855248 60.63681706 117.639166 60.65627669 120.27987671 60.6781311 C127.7885797 60.73967332 135.29726765 60.79367572 142.80615234 60.82714844 C147.4003756 60.84817859 151.99430518 60.88355322 156.58835983 60.92790604 C158.33368836 60.94200567 160.07906888 60.95077475 161.82445145 60.95396042 C181.82071139 60.99430293 181.82071139 60.99430293 189.3125 66.48828125 C197.00192938 76.81408642 196.07022913 88.0531207 196.02139282 100.35366821 C196.02743704 102.5056236 196.0352166 104.6575747 196.04457796 106.80951822 C196.06513958 112.71177406 196.06077403 118.61378696 196.05221677 124.51606274 C196.04728274 130.88558764 196.06530978 137.25505402 196.08029175 143.6245575 C196.10578912 156.09745448 196.10938454 168.57026277 196.10469122 181.0431812 C196.10102392 191.17875397 196.10454812 201.31430146 196.11314011 211.44987106 C196.11434491 212.90673826 196.11554731 214.36360545 196.11674731 215.82047265 C196.11856183 218.01587736 196.12037917 220.21128208 196.12221201 222.40668677 C196.13906568 242.8119563 196.14774593 263.21721632 196.13939857 283.62249184 C196.13908582 284.39140013 196.13877307 285.16030841 196.13845084 285.95251695 C196.1368393 289.84954719 196.13514776 293.74657739 196.13342424 297.64360757 C196.13291097 298.80453045 196.13291097 298.80453045 196.13238734 299.98890633 C196.13169403 301.55401582 196.13099697 303.11912531 196.13029617 304.6842348 C196.11957696 329.04833615 196.13545833 353.41229281 196.17236328 377.77636719 C196.21378671 405.15546597 196.23525236 432.53447512 196.22721231 459.913607 C196.22642162 462.83217898 196.22569853 465.75075096 196.22501755 468.66932297 C196.22483608 469.38793998 196.22465462 470.10655699 196.22446766 470.84695028 C196.22213522 481.69751043 196.2354356 492.54798007 196.25664139 503.39851761 C196.28072654 515.73487635 196.2833275 528.07099751 196.25906105 540.40736343 C196.24725423 546.703091 196.24516492 552.99842837 196.26906586 559.29413033 C196.29068412 565.05538411 196.28469714 570.81591959 196.25654249 576.57713906 C196.25122108 578.66310557 196.25606761 580.74912747 196.27201422 582.83503981 C196.29217495 585.6684574 196.27543519 588.49936534 196.24946022 591.33268166 C196.27138826 592.55066574 196.27138826 592.55066574 196.29375929 593.79325557 C196.15836637 600.90625284 192.85951039 605.01816047 187.99120883 609.9561793 C182.65523094 614.76755524 177.37895057 615.67536085 170.37814426 615.68025684 C169.33255561 615.68506656 169.33255561 615.68506656 168.26584396 615.68997344 C165.93060895 615.69827335 163.59563043 615.69234926 161.26039124 615.68647766 C159.56903189 615.68949835 157.8776739 615.69338741 156.18631834 615.69807023 C151.53871996 615.70836959 146.89119856 615.70616348 142.24359381 615.70188963 C137.23124011 615.69942595 132.21890511 615.7084321 127.20655823 615.71592712 C117.38712991 615.72868585 107.56772892 615.73046637 97.74829371 615.72812686 C89.7684205 615.72634494 81.78855561 615.72809063 73.8086834 615.7323513 C72.10608723 615.73324409 72.10608723 615.73324409 70.36909519 615.73415491 C68.06333451 615.73536664 65.75757383 615.73658077 63.45181315 615.73779728 C41.82161055 615.74867723 20.19142353 615.74650811 -1.43877996 615.74041244 C-21.2341932 615.73524223 -41.02955725 615.74650067 -60.82496076 615.76551066 C-81.14394215 615.78487409 -101.46290025 615.79314772 -121.78189093 615.7893874 C-133.19226135 615.78747317 -144.6025899 615.78998457 -156.0129528 615.80410194 C-165.72605211 615.81599764 -175.43908374 615.81744097 -185.15218394 615.80531178 C-190.10896406 615.79941051 -195.0656203 615.7983581 -200.02239227 615.81031418 C-204.55921891 615.82113028 -209.09581761 615.81812073 -213.6326334 615.80405249 C-215.27455953 615.80139376 -216.91650329 615.80380883 -218.55841219 615.81178836 C-220.78998456 615.82188151 -223.02076259 615.81348418 -225.25230312 615.80051136 C-227.11166143 615.80059388 -227.11166143 615.80059388 -229.00858253 615.80067807 C-236.54777021 614.99114511 -243.36003191 611.09622426 -248.3125 605.36328125 C-251.82095159 600.65193197 -251.64280534 596.65433938 -251.62863445 591.00759697 C-251.63038749 590.13394261 -251.63214053 589.26028825 -251.63394669 588.36015952 C-251.63863203 585.40617766 -251.63613469 582.45224448 -251.63371277 579.4982605 C-251.63557948 577.36956337 -251.63787961 575.24086658 -251.64057809 573.11217034 C-251.64672003 567.24170636 -251.64655969 561.37125658 -251.64538372 555.50079012 C-251.64518031 549.17750101 -251.65069279 542.85421654 -251.65544128 536.53092957 C-251.66376191 524.13362824 -251.66650971 511.73633264 -251.66705366 499.33902888 C-251.66751284 489.26385147 -251.66956926 479.1886756 -251.67275429 469.11349869 C-251.67365181 466.21550278 -251.67454162 463.31750687 -251.67542917 460.41951096 C-251.67565021 459.69909367 -251.67587126 458.97867638 -251.67609901 458.23642826 C-251.68225565 437.96442174 -251.68619934 417.69241575 -251.68575573 397.42040825 C-251.68574015 396.65569451 -251.68572457 395.89098077 -251.68570852 395.10309389 C-251.68562541 391.22704205 -251.68552637 387.35099021 -251.68542381 383.47493838 C-251.68540387 382.70511637 -251.68538392 381.93529435 -251.68536337 381.1421444 C-251.68532294 379.58537454 -251.68528114 378.02860468 -251.68523798 376.47183482 C-251.68462537 352.25660783 -251.69212823 328.04139485 -251.70581055 303.82617188 C-251.72117023 276.63098123 -251.7297768 249.43579978 -251.72884732 222.24060452 C-251.72877269 219.34072248 -251.72872399 216.44084044 -251.72869301 213.5409584 C-251.72868135 212.82691591 -251.7286697 212.11287342 -251.72865769 211.37719328 C-251.72862691 199.88360335 -251.73501442 188.39002557 -251.74362527 176.89643925 C-251.75210121 165.34394301 -251.7529206 153.79147081 -251.74651595 142.23897199 C-251.74324466 135.97974651 -251.74321597 129.72056509 -251.7518692 123.46134377 C-251.7597084 117.73205615 -251.75832919 112.00284771 -251.74958507 106.27356209 C-251.74804436 104.20015372 -251.74988763 102.12673953 -251.75544515 100.05333804 C-251.76249906 97.2351336 -251.75721631 94.41720737 -251.74888897 91.59901237 C-251.75385715 90.79406645 -251.75882533 89.98912052 -251.76394406 89.15978229 C-251.72507673 82.93770674 -251.65563166 75.90802377 -247.4375 71.05078125 C-246.798125 70.51453125 -246.15875 69.97828125 -245.5 69.42578125 C-245.17 68.43578125 -244.84 67.44578125 -244.5 66.42578125 C-242.79296875 65.29296875 -242.79296875 65.29296875 -240.6875 64.30078125 C-239.65689453 63.80191406 -239.65689453 63.80191406 -238.60546875 63.29296875 C-233.90994035 61.35900343 -229.46097993 61.25849644 -224.42675781 61.22045898 C-223.21156212 61.20560959 -223.21156212 61.20560959 -221.97181702 61.19046021 C-219.29894922 61.1589191 -216.62606366 61.13411702 -213.953125 61.109375 C-212.09795678 61.08879909 -210.24279317 61.06780245 -208.38763428 61.04640198 C-203.50835923 60.99124709 -198.62904234 60.94180879 -193.74969482 60.89355469 C-188.76928998 60.84329158 -183.78894579 60.78763063 -178.80859375 60.73242188 C-169.03911434 60.62492083 -159.26958223 60.52345799 -149.5 60.42578125 C-149.1046254 59.66407623 -148.70925079 58.90237122 -148.30189514 58.11758423 C-147.51062477 56.62392838 -147.51062477 56.62392838 -146.70336914 55.10009766 C-146.18424454 54.11151764 -145.66511993 53.12293762 -145.13026428 52.10440063 C-142.83027803 48.32538895 -140.79285516 46.94011646 -136.9375 44.80078125 C-135.84308594 44.16914063 -134.74867188 43.5375 -133.62109375 42.88671875 C-127.68628393 40.10872266 -121.89887777 40.23852751 -115.45703125 40.14453125 C-114.49222336 40.12612183 -113.52741547 40.1077124 -112.53337097 40.08874512 C-108.41404067 40.01021141 -104.29455476 39.94213482 -100.17504883 39.87353516 C-97.1647919 39.82189962 -94.15467884 39.76463902 -91.14453125 39.70703125 C-90.2080928 39.69345581 -89.27165436 39.67988037 -88.30683899 39.66589355 C-87.44221542 39.64917603 -86.57759186 39.6324585 -85.68676758 39.61523438 C-84.92463455 39.6027063 -84.16250153 39.59017822 -83.37727356 39.57727051 C-81.40928664 39.53618347 -81.40928664 39.53618347 -79.5 38.42578125 C-79.06657715 36.5429458 -79.06657715 36.5429458 -78.8125 34.23828125 C-77.72661208 28.07008181 -74.97143321 22.98967472 -72.05859375 17.52734375 C-70.82307474 15.06869189 -69.98171152 13.10488915 -69.5 10.42578125 C-68.51 10.42578125 -67.52 10.42578125 -66.5 10.42578125 C-65.37879124 8.99878828 -64.25763017 7.5717578 -63.13671875 6.14453125 C-47.74690882 -10.01660567 -18.08823804 -11.38993739 0 0 Z M-210.5 99.42578125 C-211.89739636 103.24006613 -211.64221104 107.25458588 -211.63422108 111.25978756 C-211.63657331 112.05812896 -211.63892554 112.85647036 -211.64134905 113.67900392 C-211.64803886 116.37072788 -211.64758083 119.06240356 -211.64717102 121.75413513 C-211.65046963 123.69680561 -211.65419519 125.6394754 -211.6583125 127.58214432 C-211.66834047 132.93359615 -211.67205056 138.28503677 -211.67470181 143.63649666 C-211.67860234 149.40277021 -211.68818067 155.16903486 -211.69691467 160.93530273 C-211.71668327 174.86481128 -211.72674452 188.79432055 -211.73564246 202.72383961 C-211.74002358 209.27866783 -211.74539074 215.83349525 -211.75063133 222.38832283 C-211.76764187 244.1680698 -211.78216289 265.94781605 -211.78938007 287.72756863 C-211.78985483 289.13599954 -211.79033072 290.54443046 -211.79080774 291.95286137 C-211.79104411 292.65132117 -211.79128049 293.34978097 -211.79152403 294.06940621 C-211.79272524 297.60820115 -211.79394068 301.14699609 -211.79516602 304.68579102 C-211.79540617 305.38807658 -211.79564632 306.09036215 -211.79589374 306.8139291 C-211.80379111 329.59662515 -211.82723325 352.37926921 -211.85972196 375.16194255 C-211.89399885 399.24246305 -211.91372795 423.32295292 -211.91702431 447.40349823 C-211.91919301 460.53306932 -211.92799441 473.66256395 -211.95348549 486.79211235 C-211.97513486 497.96886665 -211.9832713 509.14552593 -211.97351871 520.32229882 C-211.96895763 526.02819613 -211.97096493 531.73389714 -211.99028015 537.43976784 C-212.00779543 542.65879197 -212.00700941 547.87747491 -211.99138286 553.09650207 C-211.98898903 554.98879146 -211.99342131 556.88110375 -212.00521151 558.77335792 C-212.02020667 561.33796997 -212.01074472 563.90135356 -211.99498463 566.4659338 C-212.00520683 567.20730204 -212.01542904 567.94867029 -212.02596101 568.71250424 C-211.96042613 573.57053177 -210.95176224 576.02052228 -207.5 579.42578125 C-204.03372328 581.73663239 -202.73464889 581.67621793 -198.64750862 581.67746353 C-197.41846373 581.68267903 -196.18941883 581.68789452 -194.92313015 581.69326806 C-193.55195313 581.68894354 -192.18077668 581.68443022 -190.80960083 581.67974854 C-189.3586438 581.6820516 -187.90768794 581.68522709 -186.45673454 581.68920302 C-182.45978015 581.69758105 -178.4629208 581.69341215 -174.46596599 581.68723059 C-170.15912771 581.68271927 -165.85230618 581.68968333 -161.54547119 581.69519043 C-153.10393179 581.70410069 -144.66242789 581.70215504 -136.22088708 581.69636515 C-129.36125324 581.69185447 -122.50162937 581.69123318 -115.64199448 581.69341278 C-114.17937887 581.69387248 -114.17937887 581.69387248 -112.68721547 581.69434147 C-110.70654472 581.6949809 -108.72587398 581.69562932 -106.74520324 581.69628665 C-88.15574154 581.70199488 -69.56629954 581.69542464 -50.97684108 581.68468592 C-35.01889329 581.67575276 -19.0609746 581.67729955 -3.10302734 581.68652344 C15.41530942 581.69722221 33.93362889 581.70144255 52.45196831 581.69529891 C54.42609985 581.6946618 56.4002314 581.69403305 58.37436295 581.69341278 C59.34574124 581.69310423 60.31711953 581.69279568 61.31793352 581.69247778 C68.16998678 581.69074945 75.02202909 581.69366897 81.87408066 581.69837189 C90.22366749 581.70397648 98.5732167 581.70247328 106.92279921 581.6918104 C111.18462133 581.68654757 115.44638069 581.6845073 119.70820236 581.6911087 C123.60784618 581.6970578 127.50736895 581.69381026 131.40700175 581.6831536 C132.8195073 581.68091512 134.23202302 581.68206588 135.64452206 581.68690518 C137.56161647 581.69297057 139.47873944 581.68556438 141.39582634 581.67746353 C142.46159397 581.67713883 143.5273616 581.67681412 144.62542522 581.67647958 C148.89853715 581.30381158 151.47908042 580.63948356 154.28890479 577.29907322 C155.8309152 573.64069351 155.91442051 570.35472308 155.87752342 566.45310974 C155.88188374 565.65192612 155.88624407 564.8507425 155.89073652 564.02528059 C155.90172009 561.32975273 155.89125636 558.63473346 155.88095093 555.93920898 C155.88440626 553.99154873 155.88916999 552.04389042 155.89513266 550.09623623 C155.90768936 544.73559024 155.90145106 539.37510389 155.89217401 534.01445723 C155.88540295 528.23660656 155.89585508 522.45878388 155.90411377 516.68093872 C155.91747409 505.3587339 155.91456313 494.03658864 155.90587585 482.71438146 C155.89910875 473.51497613 155.89817836 464.31558752 155.9014473 455.11618042 C155.901907 453.80833098 155.90236669 452.50048154 155.90284032 451.1530003 C155.90379947 448.49637262 155.90477211 445.83974494 155.9057581 443.18311727 C155.9143761 418.96582483 155.90544085 394.74856255 155.88973031 370.53127526 C155.87549316 348.4169916 155.87676703 326.30275977 155.89111328 304.18847656 C155.90717217 279.35111847 155.91349469 254.51378945 155.90427649 229.67642689 C155.90332081 227.02941196 155.9023777 224.38239702 155.9014473 221.73538208 C155.90075306 219.78165976 155.90075306 219.78165976 155.90004479 217.7884683 C155.89745134 208.59699874 155.90183354 199.40554753 155.90888596 190.21408081 C155.91728797 179.01722398 155.91504819 167.82043027 155.89904372 156.62358069 C155.89114352 150.90758905 155.88809918 145.19170275 155.89799118 139.47571182 C155.90690237 134.2475142 155.90206441 129.01952 155.88605852 123.79134095 C155.88269552 121.89572289 155.88443867 120.00008781 155.89168589 118.10448062 C155.90075715 115.53555741 155.8915042 112.96733868 155.87752342 110.39845276 C155.88454692 109.65576602 155.89157042 108.91307927 155.89880675 108.14788687 C155.85062664 103.74381701 155.23667171 100.91506684 152.5 97.42578125 C147.24280929 94.7122114 141.51316315 95.15329976 135.73828125 95.1953125 C134.71067184 95.19577072 133.68306244 95.19622894 132.62431335 95.19670105 C130.46006103 95.19971331 128.29581068 95.20756876 126.1315918 95.2199707 C122.81356156 95.23827539 119.49580994 95.24047989 116.17773438 95.24023438 C114.07291425 95.24514823 111.96809601 95.25097597 109.86328125 95.2578125 C108.37263908 95.25948174 108.37263908 95.25948174 106.85188293 95.26118469 C105.46980904 95.27075447 105.46980904 95.27075447 104.05981445 95.28051758 C102.84452812 95.28623528 102.84452812 95.28623528 101.60469055 95.29206848 C99.30746584 95.34804701 99.30746584 95.34804701 96.5 96.42578125 C96.5 97.41578125 96.5 98.40578125 96.5 99.42578125 C97.16 99.42578125 97.82 99.42578125 98.5 99.42578125 C98.35163906 101.97516711 98.15798222 104.50744086 97.9375 107.05078125 C97.90076172 107.76363281 97.86402344 108.47648437 97.82617188 109.2109375 C97.43038818 113.31954915 96.61799069 115.81120552 93.52490902 118.63437462 C89.16444872 122.15049732 85.42762931 122.26666768 79.98036194 122.17422485 C79.04080845 122.18217367 78.10125496 122.19012248 77.13323015 122.19831216 C73.99452996 122.21751463 70.85764284 122.1939527 67.71899414 122.17041016 C65.4649539 122.17526764 63.21091797 122.1827079 60.95689392 122.1925354 C54.84103351 122.21133963 48.72581404 122.1925141 42.61000371 122.16587114 C36.20756648 122.14322755 29.80516047 122.15145836 23.4026947 122.15536499 C12.6499242 122.15713062 1.89746503 122.13511893 -8.85522461 122.09814453 C-19.90836202 122.06014721 -30.96120624 122.04596765 -42.0144043 122.05712891 C-55.34689921 122.070552 -68.67919755 122.06393179 -82.01169014 122.03892136 C-87.09883596 122.02963871 -92.18590214 122.02787764 -97.27305412 122.03209305 C-103.26580982 122.03586436 -109.2581901 122.01960894 -115.25086021 121.98797226 C-117.44863074 121.97949738 -119.64643941 121.97777822 -121.84421921 121.98335266 C-124.84768226 121.9898141 -127.8500299 121.97159079 -130.8533783 121.94717407 C-131.72021883 121.95473272 -132.58705937 121.96229137 -133.48016781 121.97007906 C-139.16397199 121.88851078 -143.82505936 120.8136275 -148.5 117.42578125 C-151.12474744 112.49041838 -150.88918539 107.05179347 -151.06640625 101.55273438 C-151.1449816 99.83945016 -151.31498551 98.13085794 -151.5 96.42578125 C-153.89493604 95.22831323 -155.42363749 95.28005157 -158.09814453 95.2487793 C-159.05318878 95.23594406 -160.00823303 95.22310883 -160.99221802 95.20988464 C-162.0286142 95.20249771 -163.06501038 95.19511078 -164.1328125 95.1875 C-165.19861542 95.17942825 -166.26441833 95.17135651 -167.36251831 95.16304016 C-169.62382374 95.14918911 -171.88515017 95.13847154 -174.14648438 95.13061523 C-177.59025338 95.1134544 -181.03304953 95.06958254 -184.4765625 95.02539062 C-186.67447211 95.01525919 -188.87238989 95.0067445 -191.0703125 95 C-192.09456329 94.98249191 -193.11881409 94.96498383 -194.17410278 94.94694519 C-200.1204455 94.96480678 -205.81042055 95.36925593 -210.5 99.42578125 Z " fill="#FCFCFC" transform="translate(667.5,335.57421875)"/>
<path d="M0 0 C10.20215898 7.60647694 10.20215898 7.60647694 12 13 C12.66 13.33 13.32 13.66 14 14 C15.71564549 16.90683817 17.0693993 20.0070477 18.5 23.0625 C18.90347656 23.89716797 19.30695313 24.73183594 19.72265625 25.59179688 C25.95319943 38.78286437 27.48726205 53.82983035 23.375 68 C22.63019882 70.01792153 21.83905351 72.01941288 21 74 C20.59910156 75.00160156 20.19820312 76.00320313 19.78515625 77.03515625 C12.63698476 93.09264294 -1.31706412 103.90017532 -17 111 C-30.01083155 115.91921872 -48.03820839 114.08957761 -60.59765625 108.93359375 C-76.39064083 101.53749742 -89.77296424 90.34264164 -95.875 73.75 C-101.17682967 58.23073699 -101.01685348 38.93978824 -94.0078125 23.86621094 C-90.56280966 17.22358578 -87.06937925 11.54968924 -81 7 C-79.77216797 5.7625 -79.77216797 5.7625 -78.51953125 4.5 C-57.5616166 -16.29545019 -23.44696214 -16.61561039 0 0 Z " fill="#FCFCFC" transform="translate(568,558)"/>
<path d="M0 0 C4.09456046 3.25283038 7.56428925 7.07187468 11 11 C11.66773438 11.71929688 12.33546875 12.43859375 13.0234375 13.1796875 C18.54694853 19.5715234 21.29036738 27.12215437 24 35 C24.26941406 35.78117188 24.53882813 36.56234375 24.81640625 37.3671875 C28.69391163 51.30451451 26.33724365 67.28040776 20 80 C19.55398438 80.97324219 19.10796875 81.94648437 18.6484375 82.94921875 C16.92863393 86.13207796 15.03463671 88.43194643 12.5625 91.0625 C10.23959427 93.55048533 7.99937456 96.00080014 5.90234375 98.68359375 C4 101 4 101 1 103 C0.01 103 -0.98 103 -2 103 C-2.495 104.485 -2.495 104.485 -3 106 C-5.625 107.53515625 -5.625 107.53515625 -9 109.0625 C-10.093125 109.56910156 -11.18625 110.07570313 -12.3125 110.59765625 C-29.85436297 117.26876728 -48.02391902 115.04192989 -65 108 C-65 107.34 -65 106.68 -65 106 C-65.5775 105.89300781 -66.155 105.78601563 -66.75 105.67578125 C-72.30873737 104.00622992 -77.10784556 99.16057889 -81 95 C-81.763125 94.29875 -82.52625 93.5975 -83.3125 92.875 C-96.30785803 78.97298909 -98.67758704 63.75097958 -98.12744141 45.44091797 C-97.4046637 31.59737105 -90.69206888 17.89665081 -81 8 C-80.34 8 -79.68 8 -79 8 C-78.67 7.01 -78.34 6.02 -78 5 C-75.59228574 3.22605062 -73.22663118 1.62599872 -70.6875 0.0625 C-69.96780029 -0.38407959 -69.24810059 -0.83065918 -68.5065918 -1.29077148 C-62.60841399 -4.84380397 -56.70989856 -7.36619622 -50 -9 C-49.25234375 -9.18949219 -48.5046875 -9.37898437 -47.734375 -9.57421875 C-31.109626 -12.16292967 -14.10576755 -9.45605809 0 0 Z " fill="#FCFCFC" transform="translate(567,751)"/>
<path d="M0 0 C0.73845614 -0.00241442 1.47691228 -0.00482883 2.23774588 -0.00731641 C4.70730399 -0.01294319 7.17660226 -0.00429798 9.64614868 0.00431824 C11.41875783 0.00324508 13.19136664 0.0013059 14.963974 -0.00143433 C19.77601259 -0.00628115 24.58795842 0.00137167 29.39998579 0.01151872 C34.43757489 0.02030543 39.47516114 0.01854163 44.51275635 0.01815796 C52.9747167 0.01909455 61.4366412 0.02777668 69.89859009 0.04142761 C79.6761892 0.05714289 89.45374901 0.06242604 99.23135984 0.06169206 C109.64516127 0.06101593 120.05894759 0.06796222 130.47274446 0.07713866 C133.4707053 0.07926792 136.46866369 0.07997957 139.46662521 0.08037758 C144.18290577 0.08138405 148.89915349 0.08750556 153.6154232 0.09754372 C155.34437166 0.10045828 157.07332389 0.1016962 158.8022747 0.10111618 C161.16647622 0.1006233 163.53058661 0.10630266 165.89477539 0.11352539 C166.57523654 0.11197679 167.2556977 0.11042819 167.95677888 0.10883266 C172.24244902 0.13037931 176.3621605 0.44185038 180.57437134 1.24723816 C182.3910795 3.45588919 182.71228128 5.45812328 183.57437134 8.24723816 C181.1037579 10.7178516 179.70275029 10.48837934 176.33113009 10.51472497 C175.595831 10.51026353 174.86053192 10.50580208 174.10295105 10.50120544 C172.93362507 10.50588542 172.93362507 10.50588542 171.74067634 10.51065993 C169.11428349 10.51867192 166.48811965 10.5123039 163.86172485 10.50602722 C161.98454655 10.50873569 160.10736931 10.5122958 158.23019409 10.51664734 C153.12074357 10.52579143 148.0113735 10.52221862 142.90192151 10.51588917 C137.56348272 10.51083885 132.22505099 10.51551798 126.88661194 10.5186615 C117.91915648 10.52230429 108.95173392 10.51749417 99.98428345 10.50798035 C89.60737042 10.49709852 79.230536 10.50061815 68.85362488 10.51163316 C59.95593992 10.52070107 51.05827867 10.52199364 42.16059059 10.51675582 C36.84133137 10.51363296 31.52210912 10.51323536 26.20285225 10.5198288 C21.20179175 10.52559431 16.20083282 10.52161994 11.19978333 10.51004028 C9.36111558 10.50738929 7.52243934 10.50816623 5.68377495 10.51256561 C3.17999185 10.51800532 0.67653726 10.51120619 -1.82722473 10.50120544 C-2.92682727 10.50789761 -2.92682727 10.50789761 -4.04864401 10.51472497 C-7.73352924 10.48604357 -9.27224203 10.34949591 -12.42562866 8.24723816 C-12.61312866 5.12223816 -12.61312866 5.12223816 -12.42562866 2.24723816 C-8.25771939 0.23166335 -4.54655948 -0.0341433 0 0 Z " fill="#FCFCFC" transform="translate(622.4256286621094,508.7527618408203)"/>
<path d="M0 0 C2.64558411 -0.37473011 2.64558411 -0.37473011 6.07348633 -0.3742218 C7.36912506 -0.38123611 8.66476379 -0.38825043 9.99966431 -0.39547729 C11.44378816 -0.38804888 12.88791047 -0.3803177 14.33203125 -0.37231445 C15.84630585 -0.37474126 17.36057885 -0.3784595 18.87484741 -0.38337708 C22.99465168 -0.39280499 27.11421916 -0.38334483 31.23400497 -0.37004495 C35.53857218 -0.35875356 39.84312733 -0.36283616 44.14770508 -0.36479187 C51.37748091 -0.36567558 58.6071631 -0.3545784 65.83691406 -0.33618164 C74.20414304 -0.31501282 82.57123481 -0.31150367 90.93848515 -0.3177436 C98.97637309 -0.32343178 107.01421255 -0.31779806 115.05209351 -0.30657005 C118.47790419 -0.30191681 121.9036853 -0.30105334 125.32949829 -0.3031559 C129.36123933 -0.305035 133.39284006 -0.29696421 137.4245491 -0.2810955 C138.90725753 -0.276841 140.38998017 -0.27600989 141.87269211 -0.27878571 C143.89063909 -0.28199127 145.90859431 -0.27173079 147.92651367 -0.26069641 C149.05772141 -0.25864354 150.18892914 -0.25659067 151.35441589 -0.25447559 C154 0 154 0 156 2 C155.625 5.625 155.625 5.625 155 9 C151.63715002 10.01477248 148.57256126 10.128147 145.0680542 10.13371277 C143.24706963 10.14011024 143.24706963 10.14011024 141.38929749 10.14663696 C140.04696652 10.14628746 138.70463558 10.14582593 137.36230469 10.14526367 C135.94614066 10.14825647 134.52997745 10.15165928 133.11381531 10.15544128 C129.26859197 10.16427482 125.42339088 10.16661917 121.57815838 10.16725707 C119.17397264 10.16796813 116.76979255 10.17010355 114.36560822 10.17275429 C105.97273907 10.18200672 97.5798858 10.18608945 89.18701172 10.18530273 C81.37313839 10.18470249 73.55933422 10.19524405 65.74547839 10.2110464 C59.03025067 10.22414121 52.3150455 10.22948579 45.59980512 10.22884732 C41.59217476 10.22859284 37.58460582 10.23141659 33.57698822 10.24202538 C29.8045861 10.25173864 26.03230369 10.25176351 22.25989723 10.24450874 C20.87967821 10.24346679 19.49945161 10.24580256 18.11924553 10.2518692 C11.07725059 10.28080287 4.74122901 10.13105965 -2 8 C-2.20086443 4.28400809 -2.1519437 3.22791555 0 0 Z " fill="#FCFCFC" transform="translate(612,860)"/>
<path d="M0 0 C1.28859924 -0.00708481 2.57719849 -0.01416962 3.90484619 -0.02146912 C5.33589207 -0.01917524 6.76693762 -0.01666553 8.19798279 -0.01396179 C9.70255283 -0.01830813 11.20712066 -0.02349102 12.71168518 -0.02944946 C16.80037928 -0.04285692 20.88898104 -0.04341636 24.97769284 -0.04088616 C28.38753283 -0.03981796 31.79735401 -0.04469577 35.20718998 -0.04949158 C43.24791772 -0.06059211 51.28859874 -0.06102065 59.32933044 -0.05497742 C67.63469162 -0.04893152 75.93988364 -0.06126296 84.24521595 -0.08254749 C91.36882662 -0.10013474 98.4923833 -0.10616954 105.6160149 -0.10290974 C109.87388421 -0.10109265 114.13163277 -0.1037755 118.3894825 -0.11762428 C122.39090038 -0.13015194 126.39205338 -0.128307 130.39346695 -0.11521339 C131.86489512 -0.11283722 133.33634165 -0.11561931 134.80774879 -0.12383652 C136.81028514 -0.13421669 138.81289624 -0.12444981 140.81542969 -0.11352539 C142.49923154 -0.113777 142.49923154 -0.113777 144.2170496 -0.1140337 C145.08401683 0.00962724 145.95098406 0.13328817 146.84422302 0.26069641 C148.98294913 3.46878557 149.32153264 4.53768138 148.84422302 8.26069641 C145.48514961 10.50007869 144.4035438 10.51013978 140.47946167 10.50793457 C139.36543976 10.51212906 138.25141785 10.51632355 137.1036377 10.52064514 C135.88035263 10.51502563 134.65706757 10.50940613 133.39671326 10.50361633 C132.10845642 10.50551468 130.82019958 10.50741302 129.49290466 10.5093689 C125.95268343 10.51422387 122.41258796 10.50654772 118.87238193 10.49641585 C115.15320404 10.48761762 111.43402992 10.48939333 107.71484375 10.48977661 C101.45269175 10.48883894 95.19058807 10.48015135 88.92845154 10.46650696 C81.7322709 10.45088324 74.53614355 10.44550531 67.33994716 10.44624251 C59.6412451 10.44692423 51.94256309 10.43993693 44.24386716 10.43079591 C42.04828325 10.42868484 39.85270267 10.42795745 37.65711784 10.42755699 C11.29841597 10.41818332 11.29841597 10.41818332 0.02024841 9.81269836 C-0.70246781 9.77411052 -1.42518404 9.73552267 -2.16980076 9.6957655 C-6.88870159 9.3942341 -6.88870159 9.3942341 -9.15577698 8.26069641 C-9.34327698 5.38569641 -9.34327698 5.38569641 -9.15577698 2.26069641 C-5.62730212 -0.09162016 -4.17898878 0.00763989 0 0 Z " fill="#FCFCFC" transform="translate(619.1557769775391,658.7393035888672)"/>
<path d="M0 0 C1.9434581 -0.00845947 1.9434581 -0.00845947 3.92617798 -0.01708984 C5.37030085 -0.01320087 6.81442317 -0.00910451 8.25854492 -0.00482178 C9.77281869 -0.00753053 11.28709114 -0.01109081 12.80136108 -0.01544189 C16.92111295 -0.02458195 21.04076497 -0.02101502 25.16051865 -0.01468372 C29.46508815 -0.00963207 33.76964892 -0.01431284 38.07421875 -0.01745605 C45.30397075 -0.02109814 52.53368193 -0.01629025 59.76342773 -0.0067749 C68.13065137 0.00411012 76.49777755 0.00058471 84.86499882 -0.01042771 C92.0395418 -0.01949369 99.21405539 -0.02078925 106.38860226 -0.01555037 C110.67775508 -0.01242687 114.96686205 -0.01203172 119.25601196 -0.01862335 C123.28774214 -0.02438619 127.31934626 -0.02041952 131.35106277 -0.00883484 C132.83377498 -0.00618254 134.31649773 -0.00696301 135.79920578 -0.01136017 C137.81714254 -0.01679441 139.83510239 -0.00878361 141.85302734 0 C143.54983894 0.00113108 143.54983894 0.00113108 145.28092957 0.002285 C147.92651367 0.25396729 147.92651367 0.25396729 149.92651367 2.25396729 C149.59651367 4.56396729 149.26651367 6.87396729 148.92651367 9.25396729 C97.77651367 9.25396729 46.62651367 9.25396729 -6.07348633 9.25396729 C-6.07348633 8.59396729 -6.07348633 7.93396729 -6.07348633 7.25396729 C-6.73348633 7.25396729 -7.39348633 7.25396729 -8.07348633 7.25396729 C-8.19848633 4.87896729 -8.19848633 4.87896729 -8.07348633 2.25396729 C-5.33588801 -0.48363104 -3.83399269 0.0025557 0 0 Z " fill="#FCFCFC" transform="translate(618.073486328125,759.7460327148438)"/>
<path d="M0 0 C4.61783318 3.22055524 7.36498463 8.21995388 9.1171875 13.4765625 C9.66098021 19.55240033 9.46217244 24.18033634 6.1171875 29.4765625 C5.4571875 29.4765625 4.7971875 29.4765625 4.1171875 29.4765625 C3.8490625 30.0746875 3.5809375 30.6728125 3.3046875 31.2890625 C1.29187015 34.99688394 -1.0327928 36.82853248 -4.8828125 38.4765625 C-13.3558143 39.52413363 -19.98267187 37.05440099 -26.88671875 32.234375 C-30.10116904 29.40364578 -31.30806823 26.68637769 -31.8828125 22.4765625 C-32.14686265 14.58020566 -29.85451098 8.40344977 -25.1328125 2.1640625 C-17.4366657 -3.6080476 -8.56896529 -4.12140545 0 0 Z " fill="#E6455C" transform="translate(650.8828125,355.5234375)"/>
<path d="M0 0 C1.34788101 -0.01279495 1.34788101 -0.01279495 2.72299194 -0.02584839 C4.19043098 -0.02448883 4.19043098 -0.02448883 5.68751526 -0.02310181 C7.2417923 -0.03317764 7.2417923 -0.03317764 8.82746887 -0.04345703 C12.25555708 -0.0624679 15.68344987 -0.06636265 19.11158752 -0.06851196 C21.49285971 -0.07493713 23.8741311 -0.08166528 26.25540161 -0.08868408 C31.24792817 -0.10066416 36.24038549 -0.10436409 41.23292542 -0.10317993 C47.63342726 -0.10297657 54.03348596 -0.1302941 60.43388271 -0.16472435 C65.35207157 -0.18694858 70.27015298 -0.19101886 75.18838692 -0.18996048 C77.54832043 -0.1923226 79.90825664 -0.20118028 82.26814079 -0.21662521 C85.56710349 -0.23619639 88.86509987 -0.23048171 92.16407776 -0.21841431 C93.14034622 -0.22965332 94.11661469 -0.24089233 95.12246704 -0.25247192 C99.54711574 -0.21129378 101.83851587 -0.15342799 105.63589478 2.29779053 C106.24791245 2.94777008 106.85993011 3.59774963 107.49049377 4.26742554 C105.61549377 9.14242554 105.61549377 9.14242554 104.49049377 10.26742554 C103.06793313 10.36727954 101.64045903 10.39817455 100.21440125 10.40113831 C99.29180511 10.40540329 98.36920898 10.40966827 97.4186554 10.4140625 C96.39838257 10.41360931 95.37810974 10.41315613 94.32691956 10.41268921 C92.72458969 10.41772713 92.72458969 10.41772713 91.08988953 10.42286682 C87.5385168 10.4324101 83.98719105 10.43432167 80.43580627 10.43539429 C77.97819499 10.43860469 75.5205839 10.4419686 73.06297302 10.44548035 C67.90290382 10.4514802 62.74285138 10.45331939 57.58277893 10.45272827 C50.95905271 10.45262664 44.33543367 10.46627612 37.71173286 10.48350048 C32.63321943 10.49460012 27.55473206 10.4966481 22.47620773 10.49611855 C20.03369146 10.49730185 17.59117459 10.50174309 15.1486702 10.50945091 C11.73665542 10.51920904 8.32487532 10.51638917 4.91285706 10.51034546 C3.89663269 10.51596497 2.88040833 10.52158447 1.83338928 10.52737427 C0.9051535 10.52317978 -0.02308228 10.51898529 -0.97944641 10.5146637 C-1.78656004 10.51520846 -2.59367367 10.51575323 -3.42524529 10.51631451 C-5.50950623 10.26742554 -5.50950623 10.26742554 -8.50950623 8.26742554 C-8.69700623 5.14242554 -8.69700623 5.14242554 -8.50950623 2.26742554 C-5.5424477 0.56940332 -3.4078021 0.01466463 0 0 Z " fill="#FCFCFC" transform="translate(618.5095062255859,553.7325744628906)"/>
<path d="M0 0 C1.19898674 -0.00262848 1.19898674 -0.00262848 2.42219543 -0.00531006 C5.04515806 -0.00968494 7.6680524 -0.00680601 10.29101562 -0.00341797 C12.1251222 -0.00409226 13.95922869 -0.00506333 15.79333496 -0.00631714 C19.62964736 -0.0077882 23.46593642 -0.00565857 27.30224609 -0.00097656 C32.20800383 0.00472035 37.11370685 0.00143819 42.01946259 -0.00454903 C45.80450855 -0.0081706 49.58954165 -0.00700871 53.37458801 -0.00442123 C55.1830089 -0.00375638 56.99143097 -0.00456488 58.79985046 -0.00690079 C61.33144201 -0.00945355 63.86294617 -0.00554987 66.39453125 0 C67.1344783 -0.00202423 67.87442535 -0.00404846 68.63679504 -0.00613403 C73.10098784 0.01190376 77.30645816 0.40486006 81.69726562 1.12939453 C81.69726562 1.78939453 81.69726562 2.44939453 81.69726562 3.12939453 C82.68726563 3.62439453 82.68726563 3.62439453 83.69726562 4.12939453 C81.82226562 9.00439453 81.82226562 9.00439453 80.69726562 10.12939453 C77.76081731 10.23532368 74.84776201 10.27617075 71.91064453 10.2746582 C70.52777 10.27969612 70.52777 10.27969612 69.11695862 10.28483582 C66.05256828 10.2943775 62.98823241 10.2962906 59.92382812 10.29736328 C57.80252052 10.30057387 55.68121314 10.30393778 53.55990601 10.30744934 C49.10601284 10.31344884 44.65213911 10.31528843 40.19824219 10.31469727 C34.48252132 10.31459565 28.7669247 10.32824352 23.05123329 10.34546947 C18.66756617 10.35657233 14.28392923 10.35861699 9.90024948 10.35808754 C7.79266304 10.35927042 5.68507588 10.36370931 3.5775032 10.37141991 C0.63247156 10.38118429 -2.31228848 10.3783557 -5.25732422 10.37231445 C-6.13328751 10.37793396 -7.00925079 10.38355347 -7.91175842 10.38934326 C-13.96026071 10.35771031 -13.96026071 10.35771031 -17.30273438 8.12939453 C-17.61523438 5.62939453 -17.61523438 5.62939453 -17.30273438 3.12939453 C-13.06007728 -1.11326257 -5.70631156 -0.01561043 0 0 Z " fill="#FCFCFC" transform="translate(627.302734375,613.87060546875)"/>
<path d="M0 0 C0.92031006 -0.00817749 1.84062012 -0.01635498 2.78881836 -0.02478027 C5.84838194 -0.04968645 8.90789897 -0.0661634 11.9675293 -0.08056641 C13.53080491 -0.08855192 13.53080491 -0.08855192 15.12566185 -0.09669876 C20.64154705 -0.12345279 26.15740943 -0.14282065 31.67333984 -0.15722656 C37.38020786 -0.17388183 43.0864992 -0.21866083 48.79314899 -0.26959801 C53.17256864 -0.30320319 57.55185031 -0.31479664 61.93138695 -0.32045364 C64.03539628 -0.32718455 66.13939595 -0.342454 68.24328041 -0.36634445 C71.1861065 -0.39785501 74.12736301 -0.39805394 77.0703125 -0.390625 C78.37886452 -0.415233 78.37886452 -0.415233 79.71385193 -0.44033813 C83.884835 -0.39715127 85.59211158 -0.373438 88.80168152 2.4793396 C90.22924805 5.19287109 90.22924805 5.19287109 90.22924805 9.19287109 C84.95672638 10.06640566 79.88265027 10.34634143 74.54345703 10.35400391 C73.70351196 10.35896881 72.86356689 10.36393372 71.99816895 10.36904907 C69.24055137 10.38356509 66.48299118 10.39045271 63.7253418 10.39599609 C61.79915873 10.40175347 59.87297567 10.40751113 57.9467926 10.41326904 C53.91797623 10.423747 49.88917963 10.42961152 45.86035156 10.43310547 C40.70329458 10.43860275 35.54649993 10.46267056 30.38952541 10.49107742 C26.41493463 10.50971056 22.44040721 10.51490963 18.46577644 10.51644135 C16.56440855 10.51946366 14.66304167 10.52747797 12.76171684 10.54062653 C10.10282237 10.55771142 7.44457186 10.55580159 4.78564453 10.54931641 C3.61422661 10.56313858 3.61422661 10.56313858 2.41914368 10.57723999 C-2.39121795 10.54055006 -5.64670816 9.66493364 -9.77075195 7.19287109 C-9.81329552 5.19332363 -9.81155978 3.19245473 -9.77075195 1.19287109 C-7.6565361 -0.92134476 -2.92403476 0.01417994 0 0 Z " fill="#FCFCFC" transform="translate(619.770751953125,714.80712890625)"/>
<path d="M0 0 C1.56882238 -0.00067547 3.13764465 -0.00164751 4.70646667 -0.00289917 C7.98181157 -0.004366 11.25712902 -0.00225527 14.5324707 0.00244141 C18.69432938 0.00812382 22.85612334 0.00486262 27.01797962 -0.00113106 C30.25510631 -0.00477636 33.49221814 -0.00357978 36.72934532 -0.00100327 C38.26207169 -0.00034419 39.79479949 -0.00112602 41.32752419 -0.00348282 C61.77475939 -0.02802277 61.77475939 -0.02802277 68.73046875 1.1328125 C71.08999969 3.49234344 71.22188288 4.91176867 71.73046875 8.1328125 C67.78024078 10.76629781 64.39250814 10.41309367 59.80859375 10.39160156 C58.4399115 10.39685852 58.4399115 10.39685852 57.0435791 10.40222168 C54.0224653 10.41103606 51.001585 10.40519084 47.98046875 10.3984375 C45.88443965 10.39978423 43.78841085 10.40172483 41.69238281 10.40423584 C37.29749582 10.40718671 32.90269006 10.40289062 28.5078125 10.39355469 C22.86836277 10.38216022 17.22910339 10.38871988 11.58966064 10.40069962 C7.2608903 10.40791919 2.93216525 10.40562983 -1.39660645 10.40044403 C-3.4762779 10.39910781 -5.55595343 10.4007543 -7.63562012 10.40540314 C-10.53974331 10.41046993 -13.44355622 10.40275589 -16.34765625 10.39160156 C-17.21112671 10.39565002 -18.07459717 10.39969849 -18.9642334 10.40386963 C-24.92673512 10.36134325 -24.92673512 10.36134325 -28.26953125 8.1328125 C-28.58203125 5.6328125 -28.58203125 5.6328125 -28.26953125 3.1328125 C-22.41318571 -2.72353304 -7.92899194 -0.01213605 0 0 Z " fill="#FCFCFC" transform="translate(638.26953125,814.8671875)"/>
<path d="M0 0 C0.7222023 -0.00058411 1.4444046 -0.00116821 2.18849182 -0.00177002 C4.57512517 0.00101629 6.96050876 0.03213183 9.34692383 0.06347656 C11.00172747 0.07093706 12.65653995 0.0766309 14.31135559 0.08062744 C18.66649779 0.09589896 23.02110626 0.13519342 27.3760376 0.17944336 C31.8200356 0.22036359 36.26411985 0.23863149 40.70825195 0.25878906 C49.42789791 0.3016866 58.1471101 0.36995577 66.86645508 0.45410156 C67.85645508 2.43410156 68.84645508 4.41410156 69.86645508 6.45410156 C68.78439331 8.42472839 68.78439331 8.42472839 66.86645508 10.45410156 C63.88186646 10.94184875 63.88186646 10.94184875 60.17944336 10.92407227 C59.16670853 10.92735786 59.16670853 10.92735786 58.1335144 10.93070984 C55.9007676 10.93302196 53.66933874 10.90675605 51.43676758 10.87988281 C49.88362039 10.87495828 48.33046726 10.87165981 46.77731323 10.86991882 C43.52053904 10.86227513 40.26420373 10.8417084 37.00756836 10.81079102 C32.83909735 10.77128185 28.67091232 10.75319232 24.50227547 10.74348164 C20.52206764 10.73348767 16.541929 10.71361623 12.56176758 10.69238281 C11.80453526 10.68898706 11.04730293 10.68559132 10.26712418 10.68209267 C8.11541882 10.67046727 5.96388949 10.6519369 3.81225586 10.63110352 C2.58886505 10.62125931 1.36547424 10.6114151 0.10501099 10.60127258 C-2.79161427 10.46964006 -5.3526233 10.26980635 -8.13354492 9.45410156 C-9.63354492 7.14160156 -9.63354492 7.14160156 -10.13354492 4.45410156 C-7.83863314 -0.34612114 -4.98252634 -0.03383719 0 0 Z " fill="#FCFCFC" transform="translate(736.133544921875,714.5458984375)"/>
<path d="M0 0 C1.03650538 -0.00798552 1.03650538 -0.00798552 2.09395027 -0.01613235 C5.73604334 -0.04260047 9.37810488 -0.06207591 13.02026367 -0.07666016 C16.02219445 -0.09009711 19.02346114 -0.11816205 22.02514648 -0.15869141 C25.67538572 -0.20793557 29.32501544 -0.23276535 32.97557259 -0.23988724 C34.35950496 -0.24659345 35.74342396 -0.26179956 37.12716484 -0.28577805 C39.05515687 -0.31734588 40.98361983 -0.31447086 42.91186523 -0.31005859 C44.00675766 -0.31814545 45.10165009 -0.3262323 46.22972107 -0.33456421 C49.98257965 0.46980578 51.00986654 2.13704106 53.06640625 5.2734375 C52.40640625 6.9234375 51.74640625 8.5734375 51.06640625 10.2734375 C41.48712403 10.34293862 31.90792857 10.39624926 22.32844925 10.42887402 C17.88033393 10.44453203 13.43239106 10.46577271 8.984375 10.49975586 C4.69202732 10.53234458 0.39984557 10.55028949 -3.89261627 10.55806923 C-5.53049583 10.56361363 -7.16836628 10.57444048 -8.80617523 10.59062767 C-11.09982448 10.61239588 -13.39278756 10.61540475 -15.68652344 10.61401367 C-17.64510284 10.62400642 -17.64510284 10.62400642 -19.64324951 10.63420105 C-23.09191657 10.25607849 -24.46170449 9.63612654 -26.93359375 7.2734375 C-26.60359375 5.2934375 -26.27359375 3.3134375 -25.93359375 1.2734375 C-17.28861332 0.3123777 -8.69261497 0.06340093 0 0 Z " fill="#FCFCFC" transform="translate(752.93359375,814.7265625)"/>
<path d="M0 0 C0.67836914 -0.0065712 1.35673828 -0.0131424 2.05566406 -0.01991272 C4.29752719 -0.03960373 6.53932363 -0.05129581 8.78125 -0.0612793 C9.54703369 -0.06535482 10.31281738 -0.06943035 11.10180664 -0.07362938 C15.15120167 -0.09446726 19.20056299 -0.1087816 23.25 -0.11816406 C27.43680244 -0.12925372 31.62307708 -0.16368877 35.80969238 -0.20333576 C39.02670298 -0.22943688 42.24358618 -0.2378498 45.46069336 -0.24144554 C47.00451238 -0.24632454 48.54832523 -0.25797582 50.09204102 -0.27648354 C52.24929217 -0.30074962 54.40515509 -0.29993464 56.5625 -0.29296875 C58.40424805 -0.30176811 58.40424805 -0.30176811 60.28320312 -0.31074524 C63.28125 0.17700195 63.28125 0.17700195 65.21679688 2.03840637 C66.60476445 4.82697568 66.22618207 6.26346141 65.28125 9.17700195 C63.38306119 11.07519076 60.03236873 10.31479896 57.51416016 10.32226562 C56.80682236 10.32562424 56.09948456 10.32898285 55.37071228 10.33244324 C53.0205614 10.34198138 50.67048156 10.34389788 48.3203125 10.3449707 C46.69225026 10.34818168 45.06418832 10.35154563 43.43612671 10.35505676 C40.01795788 10.36105547 36.59981435 10.36289594 33.18164062 10.36230469 C28.79765565 10.36220311 24.4138328 10.37584739 20.02988625 10.3930769 C16.66532646 10.40418689 13.30080596 10.40622419 9.93622971 10.40569496 C8.31987322 10.4068769 6.70351578 10.41131059 5.08717728 10.41902733 C2.82704529 10.42880564 0.56726637 10.4259577 -1.69287109 10.41992188 C-2.98003021 10.42134689 -4.26718933 10.42277191 -5.59335327 10.42424011 C-8.71875 10.17700195 -8.71875 10.17700195 -11.71875 8.17700195 C-12.59375 6.23950195 -12.59375 6.23950195 -12.71875 4.17700195 C-9.42999448 -0.26281799 -5.13333215 0.04115676 0 0 Z " fill="#FDFDFD" transform="translate(738.71875,613.822998046875)"/>
<path d="M0 0 C4.68730983 3.73846169 7.75532809 9.70776061 8.9296875 15.5390625 C4.1796875 19.5390625 4.1796875 19.5390625 1.9296875 19.5390625 C1.9296875 18.8790625 1.9296875 18.2190625 1.9296875 17.5390625 C0.9396875 17.2090625 -0.0503125 16.8790625 -1.0703125 16.5390625 C-2.203125 14.9453125 -2.203125 14.9453125 -3.1953125 13.0390625 C-4.71367704 9.79923479 -4.71367704 9.79923479 -6.0703125 8.5390625 C-11.35282645 8.1868949 -14.79756687 8.04317971 -19.0703125 11.5390625 C-19.4003125 12.5290625 -19.7303125 13.5190625 -20.0703125 14.5390625 C-20.7303125 14.8690625 -21.3903125 15.1990625 -22.0703125 15.5390625 C-22.4003125 16.5290625 -22.7303125 17.5190625 -23.0703125 18.5390625 C-24.8828125 19.4140625 -24.8828125 19.4140625 -27.0703125 19.5390625 C-29.3203125 18.1015625 -29.3203125 18.1015625 -31.0703125 16.5390625 C-30.49571685 10.50580814 -28.00655095 7.04900123 -24.3828125 2.3515625 C-17.32274767 -3.18200182 -7.90848588 -4.27735228 0 0 Z " fill="#E6435A" transform="translate(541.0703125,814.4609375)"/>
<path d="M0 0 C1.9375 0.6875 1.9375 0.6875 2.9375 2.6875 C3.58706607 8.27376822 2.0878462 11.22450956 -1.0625 15.6875 C-3.25 16.4375 -3.25 16.4375 -5.0625 16.6875 C-5.3925 17.6775 -5.7225 18.6675 -6.0625 19.6875 C-11.48241645 21.80077018 -19.0613329 21.82705936 -24.44921875 19.78125 C-29.81347017 16.59335201 -34.20227418 12.6122678 -36 6.5 C-36.0625 3.6875 -36.0625 3.6875 -34.0625 0.6875 C-31.8125 0.0625 -31.8125 0.0625 -29.0625 0.6875 C-27.39598818 2.33208403 -25.98451508 4.09802685 -24.52734375 5.9296875 C-21.56513987 9.48433215 -19.03104436 10.55156395 -14.5 11.1875 C-10.96003122 11.01578756 -10.96003122 11.01578756 -8.8125 8.5 C-7.66673524 6.65859235 -6.54081637 4.80465078 -5.4375 2.9375 C-3.80345686 0.26361123 -3.14304535 -0.47621899 0 0 Z " fill="#E6445A" transform="translate(546.0625,620.3125)"/>
<path d="M0 0 C3.63084177 3.02570148 4.99746907 6.1794352 5.6875 10.8125 C5.07738222 15.08332444 3.76623278 17.33867285 1.25 20.875 C-2.32575976 23.25883984 -5.69746118 23.13393532 -9.8203125 22.48828125 C-14.14257102 21.114608 -16.34595431 17.48106853 -18.75 13.875 C-18.47039767 8.93535882 -17.45835994 5.03426706 -14.75 0.875 C-10.13265371 -1.94671162 -4.96261376 -2.03016017 0 0 Z " fill="#E64259" transform="translate(509.75,786.125)"/>
<path d="M0 0 C3.34124666 2.68752449 6.50976455 5.72235743 7.44140625 10.05078125 C7.62492439 13.47842642 7.66074945 15.98409772 5.75 18.921875 C2.63296095 21.95232963 -0.14021913 23.40332903 -4.5 23.6875 C-8.60445285 23.3782604 -11.51060713 22.16426211 -14.68359375 19.55078125 C-17.00685622 16.81388154 -17.06041963 14.50433879 -17 11 C-16.30349319 7.20087196 -15.8623955 4.83457629 -13.0625 2.125 C-8.89778348 -0.14666356 -4.66648066 -0.82939402 0 0 Z " fill="#E6445B" transform="translate(508,591)"/>
<path d="M0 0 C0.680625 -0.00257813 1.36125 -0.00515625 2.0625 -0.0078125 C4 0.125 4 0.125 7 1.125 C10.34969839 5.71887208 11.71992995 9.32735625 11.45703125 15.04296875 C10.52399352 19.29347397 7.38977945 21.16952663 4 23.5 C0.23370442 24.67696737 -2.57545402 23.29481839 -6.125 21.875 C-9.49717841 19.82236966 -10.65515119 18.84311142 -12 15.125 C-12.18507207 10.3748168 -11.97390297 6.45600073 -9.125 2.5625 C-6.07972996 0.50246438 -3.59407754 -0.01361393 0 0 Z " fill="#E64259" transform="translate(559,784.875)"/>
<path d="M0 0 C0.7734375 -0.00257813 1.546875 -0.00515625 2.34375 -0.0078125 C4.5 0.125 4.5 0.125 7.5 1.125 C11.23309297 6.35133015 12.22161963 9.73351189 11.5 16.125 C10.44968688 19.27593935 9.44866085 20.57739902 6.578125 22.234375 C3.28164801 23.62116877 0.76868863 24.44491112 -2.76171875 23.5546875 C-6.43550287 21.82984246 -9.84982678 19.94102558 -11.5 16.125 C-12.23089727 11.28627502 -11.9570955 8.00766717 -9.6875 3.625 C-6.68722888 0.19611872 -4.34504069 -0.01448347 0 0 Z " fill="#E64259" transform="translate(558.5,590.875)"/>
<path d="M0 0 C3.15442052 2.60582565 5.70023287 4.82026471 6.2734375 8.98828125 C6.45602853 13.16680686 6.35549816 15.419353 4.125 19.0625 C-0.26009125 21.78125657 -3.96574393 21.91757377 -9 21 C-11.93423195 19.20353146 -13.47205355 18.0558929 -15 15 C-15.37593152 10.01890741 -15.1765161 6.94326136 -12 3 C-8.09034392 -0.14944517 -4.95502897 -0.70786128 0 0 Z " fill="#FCFCFC" transform="translate(644,363)"/>
<path d="M0 0 C1.0004398 0.24260512 1.0004398 0.24260512 2.02109051 0.49011135 C5.58306365 1.0998008 9.06121789 1.1532512 12.66255188 1.15821838 C13.42636474 1.16315636 14.19017761 1.16809434 14.97713631 1.17318195 C17.53203731 1.18851857 20.08691324 1.19690716 22.6418457 1.20532227 C24.47507446 1.2149038 26.30830101 1.22491405 28.14152527 1.23532104 C33.11626308 1.26234626 38.09101035 1.28336875 43.06578088 1.30332303 C48.26548501 1.32519726 53.46516005 1.35257893 58.6648407 1.37937927 C68.51029717 1.4292867 78.35576981 1.47423278 88.20125788 1.51740164 C99.41036963 1.56679066 110.61945217 1.62170262 121.82853568 1.67708123 C144.88566321 1.79087135 167.94281875 1.89771688 191 2 C191 2.33 191 2.66 191 3 C128.63 3.33 66.26 3.66 2 4 C1.34 2.68 0.68 1.36 0 0 Z " fill="#E86C7F" transform="translate(611,518)"/>
</svg>
